<?xml version="1.0" encoding="UTF-8"?>
<svg id="Layer_1" data-name="Layer 1" xmlns="http://www.w3.org/2000/svg" viewBox="0 0 1024 1024">
  <defs>
    <style>
      .cls-1 {
        fill: #1f2526;
      }
    </style>
  </defs>
  <polygon class="cls-1" points="82 501.51 165.91 501.51 165.91 333.7 501.51 333.7 501.51 249.81 165.91 249.81 165.91 165.92 501.51 165.92 501.51 82 82 82 82 501.51"/>
  <polygon class="cls-1" points="942 165.92 942 82 522.49 82 522.49 501.51 942 501.51 942 417.62 606.39 417.62 606.39 333.7 942 333.7 942 249.81 606.39 249.81 606.39 165.92 942 165.92"/>
  <polygon class="cls-1" points="82 606.41 165.91 606.41 165.91 942 249.81 942 249.81 606.41 501.51 606.41 501.51 522.49 82 522.49 82 606.41"/>
  <polygon class="cls-1" points="522.49 606.41 698.68 732.24 522.49 858.11 522.49 942 942 942 942 858.11 669.32 858.11 845.52 732.24 669.32 606.41 942 606.41 942 522.49 522.49 522.49 522.49 606.41"/>
</svg>